<?xml version="1.0" encoding="UTF-8"?>
<svg fill="none" viewBox="0 0 60 60" xmlns="http://www.w3.org/2000/svg">
<path d="m20.625 1.875h-11.25c-4.1364 0-7.5 3.3636-7.5 7.5v11.25c0 4.1364 3.3636 7.5 7.5 7.5h11.25c4.1364 0 7.5-3.3636 7.5-7.5v-11.25c0-4.1364-3.3636-7.5-7.5-7.5z" fill="url(#d)"/>
<path d="m20.625 31.875h-11.25c-4.1364 0-7.5 3.3636-7.5 7.5v11.25c0 4.1364 3.3636 7.5 7.5 7.5h11.25c4.1364 0 7.5-3.3636 7.5-7.5v-11.25c0-4.1364-3.3636-7.5-7.5-7.5z" fill="url(#c)"/>
<path d="m50.625 1.875h-11.25c-4.1364 0-7.5 3.3636-7.5 7.5v11.25c0 4.1364 3.3636 7.5 7.5 7.5h11.25c4.1364 0 7.5-3.3636 7.5-7.5v-11.25c0-4.1364-3.3636-7.5-7.5-7.5z" fill="url(#b)"/>
<path d="M52.5 43.125h-5.625V37.5c0-1.0364-.8386-1.875-1.875-1.875s-1.875.8386-1.875 1.875v5.625H37.5c-1.0364 0-1.875.8386-1.875 1.875s.8386 1.875 1.875 1.875h5.625V52.5c0 1.0364.8386 1.875 1.875 1.875s1.875-.8386 1.875-1.875v-5.625H52.5c1.0364 0 1.875-.8386 1.875-1.875s-.8386-1.875-1.875-1.875z" fill="url(#a)"/>
<defs>
<linearGradient id="d" x1="25.537" x2="6.7134" y1="1.875" y2="1.875" gradientUnits="userSpaceOnUse">
<stop stop-color="#4e54c8" offset="0"/>
<stop stop-color="#8a8edb" offset="1"/>
</linearGradient>
<linearGradient id="c" x1="1.875" x2="28.125" y1="45" y2="45" gradientUnits="userSpaceOnUse">
<stop stop-color="#dedff1" offset="0"/>
<stop stop-color="#aeb1f0" offset="1"/>
</linearGradient>
<linearGradient id="b" x1="31.875" x2="58.125" y1="15" y2="15" gradientUnits="userSpaceOnUse">
<stop stop-color="#dedff1" offset="0"/>
<stop stop-color="#aeb1f0" offset="1"/>
</linearGradient>
<linearGradient id="a" x1="52.526" x2="39.081" y1="35.625" y2="35.625" gradientUnits="userSpaceOnUse">
<stop stop-color="#4e54c8" offset="0"/>
<stop stop-color="#8a8edb" offset="1"/>
</linearGradient>
</defs>
</svg>
