<?xml version="1.0" encoding="UTF-8"?>
<svg fill="none" viewBox="0 0 60 60" xmlns="http://www.w3.org/2000/svg">
<path d="m50.625 7.5h-41.25c-4.1364 0-7.5 3.3646-7.5 7.5v30c0 4.1354 3.3636 7.5 7.5 7.5h41.25c4.1364 0 7.5-3.3646 7.5-7.5v-30c0-4.1354-3.3636-7.5-7.5-7.5z" fill="url(#c)"/>
<path d="M11.25 44.9999c-.4797 0-.9595-.1831-1.32568-.5493-.73243-.7324-.73243-1.9189 0-2.6513L22.9358 28.7878c1.8274-1.8274 4.801-1.8274 6.6284 0l5.398 5.3979c.2362.2353.5163.271.6628.271s.4266-.0357.6628-.271l1.648-1.6479c1.8274-1.8274 4.801-1.8274 6.6284 0l5.5115 5.5115c.7324.7324.7324 1.9189 0 2.6513s-1.919.7324-2.6514 0l-5.5115-5.5115c-.3588-.3588-.9668-.3588-1.3256 0l-1.648 1.648c-1.8274 1.8274-4.801 1.8274-6.6284 0l-5.398-5.398c-.3588-.3588-.9668-.3588-1.3256 0L12.5757 44.4506c-.3662.3662-.846.5493-1.3257.5493z" fill="url(#b)"/>
<path d="M41.25 26.25c3.1066 0 5.625-2.5184 5.625-5.625S44.3566 15 41.25 15s-5.625 2.5184-5.625 5.625 2.5184 5.625 5.625 5.625z" fill="url(#a)"/>
<defs>
<linearGradient id="c" x1="1.875" x2="58.125" y1="30" y2="30" gradientUnits="userSpaceOnUse">
<stop stop-color="#dedff1" offset="0"/>
<stop stop-color="#aeb1f0" offset="1"/>
</linearGradient>
<linearGradient id="b" x1="46.558" x2="16.978" y1="27.417" y2="27.417" gradientUnits="userSpaceOnUse">
<stop stop-color="#4e54c8" offset="0"/>
<stop stop-color="#8a8edb" offset="1"/>
</linearGradient>
<linearGradient id="a" x1="45.766" x2="37.699" y1="15" y2="15" gradientUnits="userSpaceOnUse">
<stop stop-color="#4e54c8" offset="0"/>
<stop stop-color="#8a8edb" offset="1"/>
</linearGradient>
</defs>
</svg>
