<?xml version="1.0" encoding="UTF-8"?>
<svg viewBox="0 0 60 60" xmlns="http://www.w3.org/2000/svg">
<path d="m30 60c16.568 0 30-13.432 30-30s-13.432-30-30-30-30 13.432-30 30 13.432 30 30 30z" fill="#2565e1"/>
<path d="m40.347 31.957c-0.9165 4.8565-5.1778 8.5287-10.3 8.5287-5.7916 0-10.485-4.6938-10.485-10.485s4.6938-10.485 10.485-10.485c5.1222 0 9.3835 3.6743 10.3 8.5287h10.58c-0.9865-10.664-9.9581-19.014-20.88-19.014-11.583 0-20.971 9.3897-20.971 20.971s9.3896 20.971 20.971 20.971c10.922 0 19.894-8.3496 20.88-19.014h-10.58z" fill="#fff"/>
</svg>
