<?xml version="1.0" encoding="UTF-8"?>
<svg fill="none" viewBox="0 0 60 60" xmlns="http://www.w3.org/2000/svg">
<g clip-path="url(#a)">
<path d="m58.609 1.8828-25.746 19.05 4.7876-11.227 20.958-7.8232z" fill="#e17726"/>
<g fill="#e27625">
<path d="m1.4509 1.9053 20.902 7.8021 4.546 11.374-25.448-19.176zm46.797 40.491 11.379 0.2165-3.9768 13.51-13.885-3.823 6.4827-9.9034z"/>
<path d="m11.751 42.396 6.4587 9.9035-13.862 3.8232-3.9526-13.51 11.356-0.2166zm14.529-24.213 0.4652 15.02-13.915-0.633 3.958-5.9713 0.0501-0.0576 9.4418-8.3576z"/>
<path d="m33.575 18.017 9.5859 8.5257 0.0496 0.0572 3.9581 5.9713-13.912 0.6329 0.3182-15.187zm-14.958 24.424 7.598 5.9201-8.8261 4.2613 1.2281-10.181zm22.766-9e-4 1.2025 10.182-8.8013-4.2618 7.5988-5.9205z"/>
</g>
<g fill="#d5bfb2">
<path d="M33.979 47.8018l8.9313 4.3246-8.3079 3.9485.0863-2.6097-.7097-5.6634zm-7.9607.0019l-.6819 5.6188.056 2.6493-8.3275-3.9453 8.9534-4.3228z"/>
</g>
<g fill="#233447">
<path d="m23.439 35.164 2.334 4.905-7.9462-2.3278 5.6122-2.5772zm13.122 0 5.6386 2.5766-7.9719 2.3271 2.3333-4.9037z"/>
</g>
<g fill="#cc6228">
<path d="m19.225 42.39-1.2845 10.556-6.8842-10.325 8.1687-0.2308zm21.551 0 8.169 0.2308-6.9102 10.326-1.2588-10.556zm6.5941-10.416-5.945 6.0589-4.5835-2.0946-2.1946 4.6134-1.4386-7.9334 14.162-0.6443zm-34.743 0 14.164 0.6445-1.4386 7.9333-2.195-4.6129-4.5594 2.0942-5.9712-6.0591z"/>
</g>
<g fill="#e27525">
<path d="M12.2263 30.7305l6.7262 6.8252.2331 6.738-6.9593-13.5632zm35.554-.0127l-6.9717 13.5875.2625-6.7501 6.7092-6.8374zm-21.3177.4277l.2706 1.7039.669 4.2447-.4301 13.0372-2.0332-10.4729-.0007-.1083 1.5244-8.4046zm7.0712-.0234l1.5284 8.4281-.0007.1083-2.0383 10.4991-.0806-2.6261-.3181-10.5145.9093-5.8949z"/>
</g>
<g fill="#f5841f">
<path d="m41.669 37.284-0.2277 5.8542-7.0954 5.5282-1.4344-1.0134 1.6079-8.2818 7.1496-2.0872zm-23.314 0 7.1249 2.0873 1.6078 8.2816-1.4344 1.0134-7.0958-5.5287-0.2025-5.8536z"/>
</g>
<path d="M15.7075 50.834l9.0778 4.3012-.0384-1.8367.7595-.6667h8.9845l.7871.6645-.058 1.8354 9.0202-4.2868-4.3892 3.627-5.3076 3.6455h-9.1097l-5.3041-3.6604-4.4221-3.623z" fill="#c0ac9d"/>
<path d="M33.329 47.2295l1.2835.9066.7521 6.0012-1.0885-.9192h-8.5489l-1.0678.9377.7275-6.0192 1.2839-.9071h6.6582z" fill="#161616"/>
<g fill="#763e1a">
<path d="m56.91 2.4102 3.0904 9.2712-1.93 9.3742 1.3743 1.0602-1.8596 1.4189 1.3976 1.0794-1.8507 1.6855 1.1362 0.8229-3.0154 3.5216-12.368-3.601-0.1072-0.0575-8.9126-7.5183 23.045-17.057zm-53.819 0 23.045 17.057-8.9126 7.5184-0.1072 0.0574-12.368 3.601-3.0154-3.5216 1.1353-0.8223-1.8499-1.6861 1.395-1.0782-1.8875-1.4229 1.4262-1.0609-1.9515-9.3703 3.0905-9.2716z"/>
</g>
<g fill="#f5841f">
<path d="m42.279 26.256 13.105 3.8153 4.2575 13.122h-11.232l-7.7393 0.0977 5.6283-10.971-4.019-6.0639zm-24.558 0-4.0198 6.0639 5.6291 10.971-7.7355-0.0976h-11.212l4.2336-13.122 13.105-3.8154zm20.572-16.612-3.6654 9.8998-0.7779 13.374-0.2976 4.1917-0.0236 10.708h-7.0574l-0.0228-10.688-0.2987-4.2155-0.7782-13.37-3.6648-9.8998h16.586z"/>
</g>
</g>
<defs>
<clipPath id="a">
<path d="M0 0h60v60H0z" fill="#fff"/>
</clipPath>
</defs>
</svg>
