<?xml version="1.0" encoding="UTF-8"?>
<svg fill="#39a0ff" viewBox="0 0 60 60" xmlns="http://www.w3.org/2000/svg">
<path d="m33.498 1.7724h-26.059c-2.0815 0-3.7689 1.6874-3.7689 3.7689v9.5042c0 2.0815 1.6874 3.7689 3.7689 3.7689h26.059c2.0815 0 3.7689-1.6874 3.7689-3.7689v-9.5042c0-2.0815-1.6874-3.7689-3.7689-3.7689z"/>
<path d="m33.498 1.7724h-9.5038c-2.0816 0-3.769 1.6874-3.769 3.7689v48.914c0 2.0815 1.6874 3.7689 3.7689 3.7689h9.5043c2.0815 0 3.7689-1.6874 3.7689-3.7689l-4e-4 -48.914c0-2.0815-1.6874-3.7689-3.7689-3.7689zm16.305 17.001c4.7061 0 8.5211-3.815 8.5211-8.521s-3.815-8.521-8.5211-8.521-8.521 3.815-8.521 8.521 3.815 8.521 8.521 8.521z"/>
</svg>
